<mxfile host="app.diagrams.net" agent="Mozilla/5.0 (Windows NT 10.0; Win64; x64) AppleWebKit/537.36 (KHTML, like Gecko) Chrome/131.0.0.0 Safari/537.36 Edg/131.0.0.0" version="25.0.1">
  <diagram name="Page-1" id="2YBvvXClWsGukQMizWep">
    <mxGraphModel dx="1099" dy="663" grid="1" gridSize="10" guides="1" tooltips="1" connect="1" arrows="1" fold="1" page="1" pageScale="1" pageWidth="850" pageHeight="1100" math="0" shadow="0">
      <root>
        <mxCell id="0" />
        <mxCell id="1" parent="0" />
        <mxCell id="aM9ryv3xv72pqoxQDRHE-1" value="u: Utilisateur" style="shape=umlLifeline;perimeter=lifelinePerimeter;whiteSpace=wrap;html=1;container=0;dropTarget=0;collapsible=0;recursiveResize=0;outlineConnect=0;portConstraint=eastwest;newEdgeStyle={&quot;edgeStyle&quot;:&quot;elbowEdgeStyle&quot;,&quot;elbow&quot;:&quot;vertical&quot;,&quot;curved&quot;:0,&quot;rounded&quot;:0};" parent="1" vertex="1">
          <mxGeometry x="40" y="40" width="100" height="730" as="geometry" />
        </mxCell>
        <mxCell id="aM9ryv3xv72pqoxQDRHE-2" value="" style="html=1;points=[];perimeter=orthogonalPerimeter;outlineConnect=0;targetShapes=umlLifeline;portConstraint=eastwest;newEdgeStyle={&quot;edgeStyle&quot;:&quot;elbowEdgeStyle&quot;,&quot;elbow&quot;:&quot;vertical&quot;,&quot;curved&quot;:0,&quot;rounded&quot;:0};" parent="aM9ryv3xv72pqoxQDRHE-1" vertex="1">
          <mxGeometry x="45" y="60" width="10" height="150" as="geometry" />
        </mxCell>
        <mxCell id="aM9ryv3xv72pqoxQDRHE-5" value=":page login" style="shape=umlLifeline;perimeter=lifelinePerimeter;whiteSpace=wrap;html=1;container=0;dropTarget=0;collapsible=0;recursiveResize=0;outlineConnect=0;portConstraint=eastwest;newEdgeStyle={&quot;edgeStyle&quot;:&quot;elbowEdgeStyle&quot;,&quot;elbow&quot;:&quot;vertical&quot;,&quot;curved&quot;:0,&quot;rounded&quot;:0};" parent="1" vertex="1">
          <mxGeometry x="220" y="40" width="100" height="790" as="geometry" />
        </mxCell>
        <mxCell id="aM9ryv3xv72pqoxQDRHE-4" value="" style="html=1;points=[];perimeter=orthogonalPerimeter;outlineConnect=0;targetShapes=umlLifeline;portConstraint=eastwest;newEdgeStyle={&quot;edgeStyle&quot;:&quot;elbowEdgeStyle&quot;,&quot;elbow&quot;:&quot;vertical&quot;,&quot;curved&quot;:0,&quot;rounded&quot;:0};" parent="aM9ryv3xv72pqoxQDRHE-5" vertex="1">
          <mxGeometry x="45" y="130" width="10" height="610" as="geometry" />
        </mxCell>
        <mxCell id="Oka1aH1QjVQX9ctEmZQZ-10" value="" style="html=1;points=[];perimeter=orthogonalPerimeter;outlineConnect=0;targetShapes=umlLifeline;portConstraint=eastwest;newEdgeStyle={&quot;edgeStyle&quot;:&quot;elbowEdgeStyle&quot;,&quot;elbow&quot;:&quot;vertical&quot;,&quot;curved&quot;:0,&quot;rounded&quot;:0};" vertex="1" parent="aM9ryv3xv72pqoxQDRHE-5">
          <mxGeometry x="50" y="180" width="10" height="130" as="geometry" />
        </mxCell>
        <mxCell id="Oka1aH1QjVQX9ctEmZQZ-11" value="&lt;font style=&quot;font-size: 10px;&quot;&gt;&lt;font style=&quot;&quot;&gt;Contrôle&lt;/font&gt;&amp;nbsp;saisie&lt;/font&gt;" style="html=1;verticalAlign=bottom;endArrow=open;edgeStyle=orthogonalEdgeStyle;elbow=vertical;rounded=0;endFill=0;jumpSize=4;startSize=4;endSize=5;" edge="1" parent="aM9ryv3xv72pqoxQDRHE-5">
          <mxGeometry x="0.1141" y="40" relative="1" as="geometry">
            <mxPoint x="60" y="190" as="sourcePoint" />
            <Array as="points">
              <mxPoint x="70" y="190" />
            </Array>
            <mxPoint x="60" y="214" as="targetPoint" />
            <mxPoint as="offset" />
          </mxGeometry>
        </mxCell>
        <mxCell id="Oka1aH1QjVQX9ctEmZQZ-34" value="" style="html=1;verticalAlign=bottom;endArrow=open;edgeStyle=orthogonalEdgeStyle;elbow=vertical;rounded=0;endFill=0;jumpSize=4;startSize=4;endSize=5;dashed=1;" edge="1" parent="aM9ryv3xv72pqoxQDRHE-5" source="Oka1aH1QjVQX9ctEmZQZ-10" target="Oka1aH1QjVQX9ctEmZQZ-10">
          <mxGeometry x="-0.0909" y="10" relative="1" as="geometry">
            <mxPoint x="60" y="270" as="sourcePoint" />
            <Array as="points">
              <mxPoint x="70" y="270" />
              <mxPoint x="70" y="294" />
            </Array>
            <mxPoint x="60" y="294" as="targetPoint" />
            <mxPoint as="offset" />
          </mxGeometry>
        </mxCell>
        <mxCell id="aM9ryv3xv72pqoxQDRHE-7" value="Get login.html" style="html=1;verticalAlign=bottom;endArrow=block;edgeStyle=elbowEdgeStyle;elbow=horizontal;curved=0;rounded=0;" parent="1" source="aM9ryv3xv72pqoxQDRHE-2" target="Oka1aH1QjVQX9ctEmZQZ-2" edge="1">
          <mxGeometry relative="1" as="geometry">
            <mxPoint x="195" y="130" as="sourcePoint" />
            <Array as="points">
              <mxPoint x="350" y="110" />
              <mxPoint x="180" y="120" />
            </Array>
          </mxGeometry>
        </mxCell>
        <mxCell id="aM9ryv3xv72pqoxQDRHE-9" value="return page login" style="html=1;verticalAlign=bottom;endArrow=open;edgeStyle=elbowEdgeStyle;elbow=vertical;curved=0;rounded=0;endFill=0;entryX=1;entryY=0.667;entryDx=0;entryDy=0;entryPerimeter=0;" parent="1" source="Oka1aH1QjVQX9ctEmZQZ-2" target="Oka1aH1QjVQX9ctEmZQZ-26" edge="1">
          <mxGeometry relative="1" as="geometry">
            <mxPoint x="447.96" y="138.46" as="sourcePoint" />
            <Array as="points" />
            <mxPoint x="220.00000000000003" y="131.53000000000006" as="targetPoint" />
          </mxGeometry>
        </mxCell>
        <mxCell id="Oka1aH1QjVQX9ctEmZQZ-1" value=":Contrôleur" style="shape=umlLifeline;perimeter=lifelinePerimeter;whiteSpace=wrap;html=1;container=0;dropTarget=0;collapsible=0;recursiveResize=0;outlineConnect=0;portConstraint=eastwest;newEdgeStyle={&quot;edgeStyle&quot;:&quot;elbowEdgeStyle&quot;,&quot;elbow&quot;:&quot;vertical&quot;,&quot;curved&quot;:0,&quot;rounded&quot;:0};" vertex="1" parent="1">
          <mxGeometry x="390" y="40" width="100" height="750" as="geometry" />
        </mxCell>
        <mxCell id="Oka1aH1QjVQX9ctEmZQZ-2" value="" style="html=1;points=[];perimeter=orthogonalPerimeter;outlineConnect=0;targetShapes=umlLifeline;portConstraint=eastwest;newEdgeStyle={&quot;edgeStyle&quot;:&quot;elbowEdgeStyle&quot;,&quot;elbow&quot;:&quot;vertical&quot;,&quot;curved&quot;:0,&quot;rounded&quot;:0};" vertex="1" parent="Oka1aH1QjVQX9ctEmZQZ-1">
          <mxGeometry x="45" y="60" width="10" height="60" as="geometry" />
        </mxCell>
        <mxCell id="Oka1aH1QjVQX9ctEmZQZ-3" value="um: UserMetier" style="shape=umlLifeline;perimeter=lifelinePerimeter;whiteSpace=wrap;html=1;container=0;dropTarget=0;collapsible=0;recursiveResize=0;outlineConnect=0;portConstraint=eastwest;newEdgeStyle={&quot;edgeStyle&quot;:&quot;elbowEdgeStyle&quot;,&quot;elbow&quot;:&quot;vertical&quot;,&quot;curved&quot;:0,&quot;rounded&quot;:0};" vertex="1" parent="1">
          <mxGeometry x="560" y="40" width="100" height="770" as="geometry" />
        </mxCell>
        <mxCell id="Oka1aH1QjVQX9ctEmZQZ-4" value="" style="html=1;points=[];perimeter=orthogonalPerimeter;outlineConnect=0;targetShapes=umlLifeline;portConstraint=eastwest;newEdgeStyle={&quot;edgeStyle&quot;:&quot;elbowEdgeStyle&quot;,&quot;elbow&quot;:&quot;vertical&quot;,&quot;curved&quot;:0,&quot;rounded&quot;:0};" vertex="1" parent="Oka1aH1QjVQX9ctEmZQZ-3">
          <mxGeometry x="45" y="310" width="10" height="440" as="geometry" />
        </mxCell>
        <mxCell id="Oka1aH1QjVQX9ctEmZQZ-41" value="&lt;span style=&quot;color: rgba(0, 0, 0, 0); font-family: monospace; font-size: 0px; text-align: start;&quot;&gt;%3CmxGraphModel%3E%3Croot%3E%3CmxCell%20id%3D%220%22%2F%3E%3CmxCell%20id%3D%221%22%20parent%3D%220%22%2F%3E%3CmxCell%20id%3D%222%22%20value%3D%22Succ%C3%A8s%22%20style%3D%22html%3D1%3BverticalAlign%3Dbottom%3BendArrow%3Dblock%3BedgeStyle%3DelbowEdgeStyle%3Belbow%3Dhorizontal%3Bcurved%3D0%3Brounded%3D0%3B%22%20edge%3D%221%22%20parent%3D%221%22%3E%3CmxGeometry%20x%3D%22-0.7818%22%20y%3D%2290%22%20relative%3D%221%22%20as%3D%22geometry%22%3E%3CmxPoint%20x%3D%22273.88%22%20y%3D%22370%22%20as%3D%22sourcePoint%22%2F%3E%3CArray%20as%3D%22points%22%3E%3CmxPoint%20x%3D%22349.13%22%20y%3D%22370%22%2F%3E%3C%2FArray%3E%3CmxPoint%20x%3D%22605%22%20y%3D%22370%22%20as%3D%22targetPoint%22%2F%3E%3CmxPoint%20as%3D%22offset%22%2F%3E%3C%2FmxGeometry%3E%3C%2FmxCell%3E%3CmxCell%20id%3D%223%22%20value%3D%22Valider%22%20style%3D%22edgeLabel%3Bhtml%3D1%3Balign%3Dcenter%3BverticalAlign%3Dmiddle%3Bresizable%3D0%3Bpoints%3D%5B%5D%3B%22%20vertex%3D%221%22%20connectable%3D%220%22%20parent%3D%222%22%3E%3CmxGeometry%20x%3D%220.126%22%20relative%3D%221%22%20as%3D%22geometry%22%3E%3CmxPoint%20x%3D%22-61%22%20y%3D%22-10%22%20as%3D%22offset%22%2F%3E%3C%2FmxGeometry%3E%3C%2FmxCell%3E%3C%2Froot%3E%3C%2FmxGraphModel%3E&lt;/span&gt;" style="html=1;points=[];perimeter=orthogonalPerimeter;outlineConnect=0;targetShapes=umlLifeline;portConstraint=eastwest;newEdgeStyle={&quot;edgeStyle&quot;:&quot;elbowEdgeStyle&quot;,&quot;elbow&quot;:&quot;vertical&quot;,&quot;curved&quot;:0,&quot;rounded&quot;:0};" vertex="1" parent="Oka1aH1QjVQX9ctEmZQZ-3">
          <mxGeometry x="50" y="330" width="10" height="290" as="geometry" />
        </mxCell>
        <mxCell id="Oka1aH1QjVQX9ctEmZQZ-5" value="ur: UserRepository" style="shape=umlLifeline;perimeter=lifelinePerimeter;whiteSpace=wrap;html=1;container=0;dropTarget=0;collapsible=0;recursiveResize=0;outlineConnect=0;portConstraint=eastwest;newEdgeStyle={&quot;edgeStyle&quot;:&quot;elbowEdgeStyle&quot;,&quot;elbow&quot;:&quot;vertical&quot;,&quot;curved&quot;:0,&quot;rounded&quot;:0};" vertex="1" parent="1">
          <mxGeometry x="720" y="38" width="110" height="762" as="geometry" />
        </mxCell>
        <mxCell id="Oka1aH1QjVQX9ctEmZQZ-6" value="&lt;span style=&quot;color: rgba(0, 0, 0, 0); font-family: monospace; font-size: 0px; text-align: start;&quot;&gt;%3CmxGraphModel%3E%3Croot%3E%3CmxCell%20id%3D%220%22%2F%3E%3CmxCell%20id%3D%221%22%20parent%3D%220%22%2F%3E%3CmxCell%20id%3D%222%22%20value%3D%22Succ%C3%A8s%22%20style%3D%22html%3D1%3BverticalAlign%3Dbottom%3BendArrow%3Dblock%3BedgeStyle%3DelbowEdgeStyle%3Belbow%3Dhorizontal%3Bcurved%3D0%3Brounded%3D0%3B%22%20edge%3D%221%22%20parent%3D%221%22%3E%3CmxGeometry%20x%3D%22-0.7818%22%20y%3D%2290%22%20relative%3D%221%22%20as%3D%22geometry%22%3E%3CmxPoint%20x%3D%22273.88%22%20y%3D%22370%22%20as%3D%22sourcePoint%22%2F%3E%3CArray%20as%3D%22points%22%3E%3CmxPoint%20x%3D%22349.13%22%20y%3D%22370%22%2F%3E%3C%2FArray%3E%3CmxPoint%20x%3D%22605%22%20y%3D%22370%22%20as%3D%22targetPoint%22%2F%3E%3CmxPoint%20as%3D%22offset%22%2F%3E%3C%2FmxGeometry%3E%3C%2FmxCell%3E%3CmxCell%20id%3D%223%22%20value%3D%22Valider%22%20style%3D%22edgeLabel%3Bhtml%3D1%3Balign%3Dcenter%3BverticalAlign%3Dmiddle%3Bresizable%3D0%3Bpoints%3D%5B%5D%3B%22%20vertex%3D%221%22%20connectable%3D%220%22%20parent%3D%222%22%3E%3CmxGeometry%20x%3D%220.126%22%20relative%3D%221%22%20as%3D%22geometry%22%3E%3CmxPoint%20x%3D%22-61%22%20y%3D%22-10%22%20as%3D%22offset%22%2F%3E%3C%2FmxGeometry%3E%3C%2FmxCell%3E%3C%2Froot%3E%3C%2FmxGraphModel%3E&lt;/span&gt;" style="html=1;points=[];perimeter=orthogonalPerimeter;outlineConnect=0;targetShapes=umlLifeline;portConstraint=eastwest;newEdgeStyle={&quot;edgeStyle&quot;:&quot;elbowEdgeStyle&quot;,&quot;elbow&quot;:&quot;vertical&quot;,&quot;curved&quot;:0,&quot;rounded&quot;:0};" vertex="1" parent="Oka1aH1QjVQX9ctEmZQZ-5">
          <mxGeometry x="50" y="320" width="10" height="62" as="geometry" />
        </mxCell>
        <mxCell id="Oka1aH1QjVQX9ctEmZQZ-8" value="Saisie login" style="html=1;verticalAlign=bottom;endArrow=open;edgeStyle=elbowEdgeStyle;elbow=vertical;curved=0;rounded=0;endFill=0;" edge="1" parent="1" source="aM9ryv3xv72pqoxQDRHE-2" target="aM9ryv3xv72pqoxQDRHE-4">
          <mxGeometry relative="1" as="geometry">
            <mxPoint x="120" y="180" as="sourcePoint" />
            <Array as="points">
              <mxPoint x="230" y="190" />
            </Array>
            <mxPoint x="262.5" y="180" as="targetPoint" />
          </mxGeometry>
        </mxCell>
        <mxCell id="Oka1aH1QjVQX9ctEmZQZ-9" value="Saisie password" style="html=1;verticalAlign=bottom;endArrow=open;edgeStyle=elbowEdgeStyle;elbow=vertical;curved=0;rounded=0;endFill=0;" edge="1" parent="1" source="aM9ryv3xv72pqoxQDRHE-2" target="aM9ryv3xv72pqoxQDRHE-4">
          <mxGeometry relative="1" as="geometry">
            <mxPoint x="100" y="200" as="sourcePoint" />
            <Array as="points">
              <mxPoint x="220" y="210" />
              <mxPoint x="185" y="200" />
            </Array>
            <mxPoint x="262.5" y="200" as="targetPoint" />
          </mxGeometry>
        </mxCell>
        <mxCell id="Oka1aH1QjVQX9ctEmZQZ-14" value="" style="html=1;verticalAlign=bottom;endArrow=open;edgeStyle=orthogonalEdgeStyle;elbow=vertical;rounded=0;endFill=0;jumpSize=4;startSize=4;endSize=5;dashed=1;" edge="1" parent="1">
          <mxGeometry x="-0.0909" y="10" relative="1" as="geometry">
            <mxPoint x="280" y="260" as="sourcePoint" />
            <Array as="points">
              <mxPoint x="290" y="260" />
            </Array>
            <mxPoint x="280" y="284" as="targetPoint" />
            <mxPoint as="offset" />
          </mxGeometry>
        </mxCell>
        <mxCell id="Oka1aH1QjVQX9ctEmZQZ-15" value="Succès" style="html=1;verticalAlign=bottom;endArrow=block;edgeStyle=elbowEdgeStyle;elbow=horizontal;curved=0;rounded=0;" edge="1" parent="1" target="Oka1aH1QjVQX9ctEmZQZ-4">
          <mxGeometry x="-0.7818" y="90" relative="1" as="geometry">
            <mxPoint x="273.88" y="370" as="sourcePoint" />
            <Array as="points">
              <mxPoint x="349.13" y="370" />
            </Array>
            <mxPoint x="606.1300000000002" y="370" as="targetPoint" />
            <mxPoint as="offset" />
          </mxGeometry>
        </mxCell>
        <mxCell id="Oka1aH1QjVQX9ctEmZQZ-20" value="Valider" style="edgeLabel;html=1;align=center;verticalAlign=middle;resizable=0;points=[];" vertex="1" connectable="0" parent="Oka1aH1QjVQX9ctEmZQZ-15">
          <mxGeometry x="0.126" relative="1" as="geometry">
            <mxPoint x="-61" y="-10" as="offset" />
          </mxGeometry>
        </mxCell>
        <mxCell id="Oka1aH1QjVQX9ctEmZQZ-22" value="getUserByEmail" style="html=1;verticalAlign=bottom;endArrow=block;elbow=vertical;rounded=0;" edge="1" parent="1" source="Oka1aH1QjVQX9ctEmZQZ-41">
          <mxGeometry x="0.0326" y="15" relative="1" as="geometry">
            <mxPoint x="625" y="379.9999999999999" as="sourcePoint" />
            <mxPoint x="770" y="380" as="targetPoint" />
            <mxPoint as="offset" />
          </mxGeometry>
        </mxCell>
        <mxCell id="Oka1aH1QjVQX9ctEmZQZ-26" value="" style="ellipse;html=1;shape=endState;fillColor=#000000;strokeColor=#ff0000;" vertex="1" parent="1">
          <mxGeometry x="180" y="120" width="30" height="30" as="geometry" />
        </mxCell>
        <mxCell id="Oka1aH1QjVQX9ctEmZQZ-27" value="valider" style="html=1;verticalAlign=bottom;endArrow=open;edgeStyle=elbowEdgeStyle;elbow=vertical;curved=0;rounded=0;endFill=0;" edge="1" parent="1" source="aM9ryv3xv72pqoxQDRHE-2" target="aM9ryv3xv72pqoxQDRHE-4">
          <mxGeometry relative="1" as="geometry">
            <mxPoint x="100" y="229.5" as="sourcePoint" />
            <Array as="points">
              <mxPoint x="190" y="229.5" />
            </Array>
            <mxPoint x="267.5" y="229.5" as="targetPoint" />
          </mxGeometry>
        </mxCell>
        <mxCell id="Oka1aH1QjVQX9ctEmZQZ-29" value="MODELE" style="text;html=1;align=center;verticalAlign=middle;resizable=0;points=[];autosize=1;strokeColor=none;fillColor=none;" vertex="1" parent="1">
          <mxGeometry x="725" y="8" width="70" height="30" as="geometry" />
        </mxCell>
        <mxCell id="Oka1aH1QjVQX9ctEmZQZ-31" value="si onblur: va vérifier chaque champ input" style="text;html=1;align=center;verticalAlign=middle;resizable=0;points=[];autosize=1;strokeColor=none;fillColor=none;" vertex="1" parent="1">
          <mxGeometry x="270" y="170" width="240" height="30" as="geometry" />
        </mxCell>
        <mxCell id="Oka1aH1QjVQX9ctEmZQZ-32" value="loop" style="shape=umlFrame;whiteSpace=wrap;html=1;pointerEvents=0;" vertex="1" parent="1">
          <mxGeometry x="10" y="160" width="370" height="140" as="geometry" />
        </mxCell>
        <mxCell id="Oka1aH1QjVQX9ctEmZQZ-35" value="OK" style="text;html=1;align=center;verticalAlign=middle;resizable=0;points=[];autosize=1;strokeColor=none;fillColor=none;" vertex="1" parent="1">
          <mxGeometry x="280" y="308" width="40" height="30" as="geometry" />
        </mxCell>
        <mxCell id="Oka1aH1QjVQX9ctEmZQZ-42" value="" style="html=1;verticalAlign=bottom;endArrow=open;edgeStyle=orthogonalEdgeStyle;elbow=vertical;rounded=0;endFill=0;jumpSize=4;startSize=4;endSize=5;dashed=1;" edge="1" parent="1" target="Oka1aH1QjVQX9ctEmZQZ-57">
          <mxGeometry x="-0.0909" y="10" relative="1" as="geometry">
            <mxPoint x="770" y="414.9655172413793" as="sourcePoint" />
            <Array as="points">
              <mxPoint x="770" y="410" />
            </Array>
            <mxPoint x="700" y="410" as="targetPoint" />
            <mxPoint as="offset" />
          </mxGeometry>
        </mxCell>
        <mxCell id="Oka1aH1QjVQX9ctEmZQZ-43" value="return" style="text;html=1;align=center;verticalAlign=middle;resizable=0;points=[];autosize=1;strokeColor=none;fillColor=none;" vertex="1" parent="1">
          <mxGeometry x="710" y="390" width="50" height="30" as="geometry" />
        </mxCell>
        <mxCell id="Oka1aH1QjVQX9ctEmZQZ-45" value="ALT" style="shape=umlFrame;whiteSpace=wrap;html=1;pointerEvents=0;" vertex="1" parent="1">
          <mxGeometry x="330" y="440" width="480" height="370" as="geometry" />
        </mxCell>
        <mxCell id="Oka1aH1QjVQX9ctEmZQZ-46" value="" style="line;strokeWidth=1;fillColor=none;align=left;verticalAlign=middle;spacingTop=-1;spacingLeft=3;spacingRight=3;rotatable=0;labelPosition=right;points=[];portConstraint=eastwest;strokeColor=inherit;dashed=1;" vertex="1" parent="1">
          <mxGeometry x="330" y="700" width="480" height="8" as="geometry" />
        </mxCell>
        <mxCell id="Oka1aH1QjVQX9ctEmZQZ-47" value="&lt;span style=&quot;color: rgba(0, 0, 0, 0); font-family: monospace; font-size: 0px; text-align: start;&quot;&gt;%3CmxGraphModel%3E%3Croot%3E%3CmxCell%20id%3D%220%22%2F%3E%3CmxCell%20id%3D%221%22%20parent%3D%220%22%2F%3E%3CmxCell%20id%3D%222%22%20value%3D%22Succ%C3%A8s%22%20style%3D%22html%3D1%3BverticalAlign%3Dbottom%3BendArrow%3Dblock%3BedgeStyle%3DelbowEdgeStyle%3Belbow%3Dhorizontal%3Bcurved%3D0%3Brounded%3D0%3B%22%20edge%3D%221%22%20parent%3D%221%22%3E%3CmxGeometry%20x%3D%22-0.7818%22%20y%3D%2290%22%20relative%3D%221%22%20as%3D%22geometry%22%3E%3CmxPoint%20x%3D%22273.88%22%20y%3D%22370%22%20as%3D%22sourcePoint%22%2F%3E%3CArray%20as%3D%22points%22%3E%3CmxPoint%20x%3D%22349.13%22%20y%3D%22370%22%2F%3E%3C%2FArray%3E%3CmxPoint%20x%3D%22605%22%20y%3D%22370%22%20as%3D%22targetPoint%22%2F%3E%3CmxPoint%20as%3D%22offset%22%2F%3E%3C%2FmxGeometry%3E%3C%2FmxCell%3E%3CmxCell%20id%3D%223%22%20value%3D%22Valider%22%20style%3D%22edgeLabel%3Bhtml%3D1%3Balign%3Dcenter%3BverticalAlign%3Dmiddle%3Bresizable%3D0%3Bpoints%3D%5B%5D%3B%22%20vertex%3D%221%22%20connectable%3D%220%22%20parent%3D%222%22%3E%3CmxGeometry%20x%3D%220.126%22%20relative%3D%221%22%20as%3D%22geometry%22%3E%3CmxPoint%20x%3D%22-61%22%20y%3D%22-10%22%20as%3D%22offset%22%2F%3E%3C%2FmxGeometry%3E%3C%2FmxCell%3E%3C%2Froot%3E%3C%2FmxGraphModel%3E&lt;/span&gt;" style="html=1;points=[];perimeter=orthogonalPerimeter;outlineConnect=0;targetShapes=umlLifeline;portConstraint=eastwest;newEdgeStyle={&quot;edgeStyle&quot;:&quot;elbowEdgeStyle&quot;,&quot;elbow&quot;:&quot;vertical&quot;,&quot;curved&quot;:0,&quot;rounded&quot;:0};" vertex="1" parent="1">
          <mxGeometry x="770" y="480" width="10" height="30" as="geometry" />
        </mxCell>
        <mxCell id="Oka1aH1QjVQX9ctEmZQZ-48" value="&lt;span style=&quot;color: rgba(0, 0, 0, 0); font-family: monospace; font-size: 0px; text-align: start;&quot;&gt;%3CmxGraphModel%3E%3Croot%3E%3CmxCell%20id%3D%220%22%2F%3E%3CmxCell%20id%3D%221%22%20parent%3D%220%22%2F%3E%3CmxCell%20id%3D%222%22%20value%3D%22Succ%C3%A8s%22%20style%3D%22html%3D1%3BverticalAlign%3Dbottom%3BendArrow%3Dblock%3BedgeStyle%3DelbowEdgeStyle%3Belbow%3Dhorizontal%3Bcurved%3D0%3Brounded%3D0%3B%22%20edge%3D%221%22%20parent%3D%221%22%3E%3CmxGeometry%20x%3D%22-0.7818%22%20y%3D%2290%22%20relative%3D%221%22%20as%3D%22geometry%22%3E%3CmxPoint%20x%3D%22273.88%22%20y%3D%22370%22%20as%3D%22sourcePoint%22%2F%3E%3CArray%20as%3D%22points%22%3E%3CmxPoint%20x%3D%22349.13%22%20y%3D%22370%22%2F%3E%3C%2FArray%3E%3CmxPoint%20x%3D%22605%22%20y%3D%22370%22%20as%3D%22targetPoint%22%2F%3E%3CmxPoint%20as%3D%22offset%22%2F%3E%3C%2FmxGeometry%3E%3C%2FmxCell%3E%3CmxCell%20id%3D%223%22%20value%3D%22Valider%22%20style%3D%22edgeLabel%3Bhtml%3D1%3Balign%3Dcenter%3BverticalAlign%3Dmiddle%3Bresizable%3D0%3Bpoints%3D%5B%5D%3B%22%20vertex%3D%221%22%20connectable%3D%220%22%20parent%3D%222%22%3E%3CmxGeometry%20x%3D%220.126%22%20relative%3D%221%22%20as%3D%22geometry%22%3E%3CmxPoint%20x%3D%22-61%22%20y%3D%22-10%22%20as%3D%22offset%22%2F%3E%3C%2FmxGeometry%3E%3C%2FmxCell%3E%3C%2Froot%3E%3C%2FmxGraphModel%3E&lt;/span&gt;" style="html=1;points=[];perimeter=orthogonalPerimeter;outlineConnect=0;targetShapes=umlLifeline;portConstraint=eastwest;newEdgeStyle={&quot;edgeStyle&quot;:&quot;elbowEdgeStyle&quot;,&quot;elbow&quot;:&quot;vertical&quot;,&quot;curved&quot;:0,&quot;rounded&quot;:0};" vertex="1" parent="1">
          <mxGeometry x="770" y="740" width="10" height="50" as="geometry" />
        </mxCell>
        <mxCell id="Oka1aH1QjVQX9ctEmZQZ-49" value="" style="html=1;verticalAlign=bottom;endArrow=open;edgeStyle=orthogonalEdgeStyle;elbow=vertical;rounded=0;endFill=0;jumpSize=4;startSize=4;endSize=5;dashed=1;" edge="1" parent="1">
          <mxGeometry x="-0.0909" y="10" relative="1" as="geometry">
            <mxPoint x="769.98" y="494.9655172413793" as="sourcePoint" />
            <Array as="points">
              <mxPoint x="769.98" y="490" />
            </Array>
            <mxPoint x="619.98" y="490" as="targetPoint" />
            <mxPoint as="offset" />
          </mxGeometry>
        </mxCell>
        <mxCell id="Oka1aH1QjVQX9ctEmZQZ-61" value="&lt;span style=&quot;font-size: 12px; background-color: rgb(251, 251, 251);&quot;&gt;user trouvé&lt;/span&gt;" style="edgeLabel;html=1;align=center;verticalAlign=middle;resizable=0;points=[];" vertex="1" connectable="0" parent="Oka1aH1QjVQX9ctEmZQZ-49">
          <mxGeometry x="0.0412" relative="1" as="geometry">
            <mxPoint as="offset" />
          </mxGeometry>
        </mxCell>
        <mxCell id="Oka1aH1QjVQX9ctEmZQZ-53" value="" style="html=1;verticalAlign=bottom;endArrow=open;edgeStyle=orthogonalEdgeStyle;elbow=vertical;rounded=0;endFill=0;jumpSize=4;startSize=4;endSize=5;dashed=1;" edge="1" parent="1" source="Oka1aH1QjVQX9ctEmZQZ-48" target="Oka1aH1QjVQX9ctEmZQZ-4">
          <mxGeometry x="-0.0909" y="10" relative="1" as="geometry">
            <mxPoint x="769.97" y="587.4855172413793" as="sourcePoint" />
            <Array as="points">
              <mxPoint x="693" y="775" />
              <mxPoint x="693" y="770" />
            </Array>
            <mxPoint x="640" y="730" as="targetPoint" />
            <mxPoint as="offset" />
          </mxGeometry>
        </mxCell>
        <mxCell id="Oka1aH1QjVQX9ctEmZQZ-62" value="&lt;span style=&quot;font-size: 12px; background-color: rgb(251, 251, 251);&quot;&gt;user&amp;nbsp; non trouvé&lt;/span&gt;" style="edgeLabel;html=1;align=center;verticalAlign=middle;resizable=0;points=[];" vertex="1" connectable="0" parent="Oka1aH1QjVQX9ctEmZQZ-53">
          <mxGeometry x="-0.141" y="-1" relative="1" as="geometry">
            <mxPoint as="offset" />
          </mxGeometry>
        </mxCell>
        <mxCell id="Oka1aH1QjVQX9ctEmZQZ-57" value="&lt;font style=&quot;font-size: 8px;&quot;&gt;Control Object&lt;/font&gt;" style="ellipse;shape=umlControl;whiteSpace=wrap;html=1;" vertex="1" parent="1">
          <mxGeometry x="670" y="390" width="30" height="30" as="geometry" />
        </mxCell>
        <mxCell id="Oka1aH1QjVQX9ctEmZQZ-59" value="" style="html=1;verticalAlign=bottom;endArrow=open;edgeStyle=orthogonalEdgeStyle;elbow=vertical;rounded=0;endFill=0;jumpSize=4;startSize=4;endSize=5;dashed=1;" edge="1" parent="1">
          <mxGeometry x="-0.0909" y="10" relative="1" as="geometry">
            <mxPoint x="605.37" y="767.0034782608695" as="sourcePoint" />
            <Array as="points">
              <mxPoint x="523.37" y="766.96" />
              <mxPoint x="523.37" y="769.96" />
            </Array>
            <mxPoint x="270.00043478260875" y="769.96" as="targetPoint" />
            <mxPoint as="offset" />
          </mxGeometry>
        </mxCell>
        <mxCell id="Oka1aH1QjVQX9ctEmZQZ-60" value="message d&#39;erreur" style="edgeLabel;html=1;align=center;verticalAlign=middle;resizable=0;points=[];" vertex="1" connectable="0" parent="Oka1aH1QjVQX9ctEmZQZ-59">
          <mxGeometry x="-0.083" y="-1" relative="1" as="geometry">
            <mxPoint as="offset" />
          </mxGeometry>
        </mxCell>
        <mxCell id="Oka1aH1QjVQX9ctEmZQZ-63" value="ALT" style="shape=umlFrame;whiteSpace=wrap;html=1;pointerEvents=0;" vertex="1" parent="1">
          <mxGeometry x="360" y="510" width="380" height="160" as="geometry" />
        </mxCell>
        <mxCell id="Oka1aH1QjVQX9ctEmZQZ-64" value="" style="line;strokeWidth=1;fillColor=none;align=left;verticalAlign=middle;spacingTop=-1;spacingLeft=3;spacingRight=3;rotatable=0;labelPosition=right;points=[];portConstraint=eastwest;strokeColor=inherit;dashed=1;" vertex="1" parent="1">
          <mxGeometry x="360" y="591" width="380" height="8" as="geometry" />
        </mxCell>
        <mxCell id="Oka1aH1QjVQX9ctEmZQZ-66" value="&lt;span style=&quot;font-size: 10px;&quot;&gt;KO&lt;/span&gt;" style="html=1;verticalAlign=bottom;endArrow=open;edgeStyle=orthogonalEdgeStyle;elbow=vertical;rounded=0;endFill=0;jumpSize=4;startSize=4;endSize=5;" edge="1" parent="1">
          <mxGeometry x="0.0909" y="10" relative="1" as="geometry">
            <mxPoint x="620" y="526" as="sourcePoint" />
            <Array as="points">
              <mxPoint x="630" y="526" />
            </Array>
            <mxPoint x="620" y="550" as="targetPoint" />
            <mxPoint as="offset" />
          </mxGeometry>
        </mxCell>
        <mxCell id="Oka1aH1QjVQX9ctEmZQZ-67" value="&lt;span style=&quot;font-size: 10px;&quot;&gt;OK&lt;/span&gt;" style="html=1;verticalAlign=bottom;endArrow=open;edgeStyle=orthogonalEdgeStyle;elbow=vertical;rounded=0;endFill=0;jumpSize=4;startSize=4;endSize=5;" edge="1" parent="1">
          <mxGeometry x="0.0909" y="10" relative="1" as="geometry">
            <mxPoint x="620" y="620" as="sourcePoint" />
            <Array as="points">
              <mxPoint x="630" y="620" />
            </Array>
            <mxPoint x="620" y="644" as="targetPoint" />
            <mxPoint as="offset" />
          </mxGeometry>
        </mxCell>
        <mxCell id="Oka1aH1QjVQX9ctEmZQZ-68" value="" style="html=1;verticalAlign=bottom;endArrow=open;edgeStyle=orthogonalEdgeStyle;elbow=vertical;rounded=0;endFill=0;jumpSize=4;startSize=4;endSize=5;dashed=1;" edge="1" parent="1" target="aM9ryv3xv72pqoxQDRHE-5">
          <mxGeometry x="-0.0909" y="10" relative="1" as="geometry">
            <mxPoint x="610" y="564.9655172413793" as="sourcePoint" />
            <Array as="points">
              <mxPoint x="610" y="560" />
            </Array>
            <mxPoint x="460" y="560" as="targetPoint" />
            <mxPoint as="offset" />
          </mxGeometry>
        </mxCell>
        <mxCell id="Oka1aH1QjVQX9ctEmZQZ-69" value="&lt;span style=&quot;font-size: 12px; background-color: rgb(251, 251, 251);&quot;&gt;message erreur&lt;/span&gt;" style="edgeLabel;html=1;align=center;verticalAlign=middle;resizable=0;points=[];" vertex="1" connectable="0" parent="Oka1aH1QjVQX9ctEmZQZ-68">
          <mxGeometry x="0.0412" relative="1" as="geometry">
            <mxPoint x="75" as="offset" />
          </mxGeometry>
        </mxCell>
        <mxCell id="Oka1aH1QjVQX9ctEmZQZ-86" value="" style="html=1;verticalAlign=bottom;endArrow=open;edgeStyle=orthogonalEdgeStyle;elbow=vertical;rounded=0;endFill=0;jumpSize=4;startSize=4;endSize=5;dashed=1;" edge="1" parent="1" target="Oka1aH1QjVQX9ctEmZQZ-85">
          <mxGeometry x="-0.0909" y="10" relative="1" as="geometry">
            <mxPoint x="610" y="638.75" as="sourcePoint" />
            <Array as="points">
              <mxPoint x="610" y="637" />
              <mxPoint x="590" y="637" />
              <mxPoint x="590" y="631" />
            </Array>
            <mxPoint x="440" y="631" as="targetPoint" />
            <mxPoint as="offset" />
          </mxGeometry>
        </mxCell>
        <mxCell id="Oka1aH1QjVQX9ctEmZQZ-88" value="redirection" style="edgeLabel;html=1;align=center;verticalAlign=middle;resizable=0;points=[];" vertex="1" connectable="0" parent="Oka1aH1QjVQX9ctEmZQZ-86">
          <mxGeometry x="0.2456" y="-1" relative="1" as="geometry">
            <mxPoint as="offset" />
          </mxGeometry>
        </mxCell>
        <mxCell id="Oka1aH1QjVQX9ctEmZQZ-85" value="&lt;span style=&quot;color: rgba(0, 0, 0, 0); font-family: monospace; font-size: 0px; text-align: start;&quot;&gt;%3CmxGraphModel%3E%3Croot%3E%3CmxCell%20id%3D%220%22%2F%3E%3CmxCell%20id%3D%221%22%20parent%3D%220%22%2F%3E%3CmxCell%20id%3D%222%22%20value%3D%22Succ%C3%A8s%22%20style%3D%22html%3D1%3BverticalAlign%3Dbottom%3BendArrow%3Dblock%3BedgeStyle%3DelbowEdgeStyle%3Belbow%3Dhorizontal%3Bcurved%3D0%3Brounded%3D0%3B%22%20edge%3D%221%22%20parent%3D%221%22%3E%3CmxGeometry%20x%3D%22-0.7818%22%20y%3D%2290%22%20relative%3D%221%22%20as%3D%22geometry%22%3E%3CmxPoint%20x%3D%22273.88%22%20y%3D%22370%22%20as%3D%22sourcePoint%22%2F%3E%3CArray%20as%3D%22points%22%3E%3CmxPoint%20x%3D%22349.13%22%20y%3D%22370%22%2F%3E%3C%2FArray%3E%3CmxPoint%20x%3D%22605%22%20y%3D%22370%22%20as%3D%22targetPoint%22%2F%3E%3CmxPoint%20as%3D%22offset%22%2F%3E%3C%2FmxGeometry%3E%3C%2FmxCell%3E%3CmxCell%20id%3D%223%22%20value%3D%22Valider%22%20style%3D%22edgeLabel%3Bhtml%3D1%3Balign%3Dcenter%3BverticalAlign%3Dmiddle%3Bresizable%3D0%3Bpoints%3D%5B%5D%3B%22%20vertex%3D%221%22%20connectable%3D%220%22%20parent%3D%222%22%3E%3CmxGeometry%20x%3D%220.126%22%20relative%3D%221%22%20as%3D%22geometry%22%3E%3CmxPoint%20x%3D%22-61%22%20y%3D%22-10%22%20as%3D%22offset%22%2F%3E%3C%2FmxGeometry%3E%3C%2FmxCell%3E%3C%2Froot%3E%3C%2FmxGraphModel%3E&lt;/span&gt;" style="html=1;points=[];perimeter=orthogonalPerimeter;outlineConnect=0;targetShapes=umlLifeline;portConstraint=eastwest;newEdgeStyle={&quot;edgeStyle&quot;:&quot;elbowEdgeStyle&quot;,&quot;elbow&quot;:&quot;vertical&quot;,&quot;curved&quot;:0,&quot;rounded&quot;:0};" vertex="1" parent="1">
          <mxGeometry x="435" y="610" width="10" height="40" as="geometry" />
        </mxCell>
        <mxCell id="Oka1aH1QjVQX9ctEmZQZ-89" value="" style="html=1;verticalAlign=bottom;endArrow=open;edgeStyle=orthogonalEdgeStyle;elbow=vertical;rounded=0;endFill=0;jumpSize=4;startSize=4;endSize=5;dashed=1;entryX=0.728;entryY=0.665;entryDx=0;entryDy=0;entryPerimeter=0;" edge="1" parent="1" source="Oka1aH1QjVQX9ctEmZQZ-85" target="Oka1aH1QjVQX9ctEmZQZ-91">
          <mxGeometry x="-0.0909" y="10" relative="1" as="geometry">
            <mxPoint x="415" y="638.87" as="sourcePoint" />
            <Array as="points">
              <mxPoint x="395" y="637" />
              <mxPoint x="395" y="631" />
              <mxPoint x="232" y="631" />
            </Array>
            <mxPoint x="250" y="631.12" as="targetPoint" />
            <mxPoint as="offset" />
          </mxGeometry>
        </mxCell>
        <mxCell id="Oka1aH1QjVQX9ctEmZQZ-90" value="Page d&#39;accueil" style="edgeLabel;html=1;align=center;verticalAlign=middle;resizable=0;points=[];" vertex="1" connectable="0" parent="Oka1aH1QjVQX9ctEmZQZ-89">
          <mxGeometry x="0.2456" y="-1" relative="1" as="geometry">
            <mxPoint as="offset" />
          </mxGeometry>
        </mxCell>
        <mxCell id="Oka1aH1QjVQX9ctEmZQZ-91" value="" style="ellipse;html=1;shape=endState;fillColor=#000000;strokeColor=#ff0000;" vertex="1" parent="1">
          <mxGeometry x="210" y="610" width="30" height="30" as="geometry" />
        </mxCell>
      </root>
    </mxGraphModel>
  </diagram>
</mxfile>
